<svg width="33" height="26" viewBox="0 0 33 26" fill="none" xmlns="http://www.w3.org/2000/svg">
<path d="M1.9801 2.95491C0.639725 4.63038 0.0406182 6.91511 0.456946 8.77335C1.53331 13.5865 6.00122 14.3582 9.28107 14.7847C11.8704 15.1198 14.3481 15.5971 14.2872 17.9021C14.2161 20.2985 11.515 20.8875 9.73802 20.8875C5.11779 20.8875 4.96548 17.4756 4.96548 17.4756H0C0.0710804 18.7551 0.456946 20.8164 2.04102 22.5833C3.76726 24.5227 6.36678 25.4976 9.74817 25.4976C12.3477 25.4976 14.7136 24.6548 16.3993 23.1519V25.2132H21.0296V19.3136L22.6645 17.5162L27.3457 25.2132H32.7376L25.924 13.9521L32.7376 6.48863H26.7364L21.0296 12.7437V0.243705H16.3993V3.2697C16.247 3.07677 16.0845 2.88383 15.9119 2.6909C14.2262 0.903737 11.7994 0 8.69212 0C5.10764 0 3.06661 1.60439 1.9801 2.95491ZM8.77336 4.33591C10.855 4.33591 12.9366 4.80301 13.7287 7.69699H16.3891V12.1243C13.0686 9.39277 5.85906 11.1089 5.08733 7.70715C4.68115 5.91998 6.45816 4.33591 8.77336 4.33591Z" fill="white"/>
</svg>
